<?xml version="1.0" encoding="UTF-8" standalone="no"?>
<svg
   xmlns:dc="http://purl.org/dc/elements/1.1/"
   xmlns:cc="http://creativecommons.org/ns#"
   xmlns:rdf="http://www.w3.org/1999/02/22-rdf-syntax-ns#"
   xmlns:svg="http://www.w3.org/2000/svg"
   xmlns="http://www.w3.org/2000/svg"
   xmlns:sodipodi="http://sodipodi.sourceforge.net/DTD/sodipodi-0.dtd"
   xmlns:inkscape="http://www.inkscape.org/namespaces/inkscape"
   height="20"
   version="1.1"
   viewBox="0 0 20 20"
   width="20"
   xml:space="preserve"
   id="svg2"
   inkscape:version="0.91 r13725"
   sodipodi:docname="local_sidebar.svg"><metadata
     id="metadata11"><rdf:RDF><cc:Work
         rdf:about=""><dc:format>image/svg+xml</dc:format><dc:type
           rdf:resource="http://purl.org/dc/dcmitype/StillImage" /><dc:title></dc:title></cc:Work></rdf:RDF></metadata><defs
     id="defs9" /><sodipodi:namedview
     pagecolor="#ffffff"
     bordercolor="#666666"
     borderopacity="1"
     objecttolerance="10"
     gridtolerance="10"
     guidetolerance="10"
     inkscape:pageopacity="0"
     inkscape:pageshadow="2"
     inkscape:window-width="1366"
     inkscape:window-height="707"
     id="namedview7"
     showgrid="false"
     inkscape:zoom="7.375"
     inkscape:cx="37.559322"
     inkscape:cy="16"
     inkscape:window-x="0"
     inkscape:window-y="0"
     inkscape:window-maximized="1"
     inkscape:current-layer="svg2" /><g
     id="_x37__music_node"
     transform="matrix(0.7494994,0,0,0.7494994,-1.5781378,-1.7046917)"
     style="fill:#FFFFFF;fill-opacity:1"><path
       d="m 25.271,19.102 c 0.006,-0.016 0.013,-0.029 0.021,-0.043 0.004,-0.05 0.008,-0.101 0.015,-0.152 C 25.296,18.879 25.284,18.851 25.273,18.823 20.511,15.88 21.185,7.172 15.65,4.086 15.469,3.983 15.292,3.946 15.116,3.933 15.055,3.918 14.997,3.895 14.93,3.895 c -0.442,0 -0.802,0.36 -0.802,0.803 l 0,17.466 c -0.789,-0.502 -1.798,-0.816 -2.916,-0.816 -2.496,0 -4.521,1.514 -4.521,3.38 0,1.866 2.024,3.38 4.521,3.38 2.497,0 4.521,-1.514 4.521,-3.38 0,-0.014 -0.005,-0.025 -0.005,-0.039 10e-4,-0.01 0.005,-0.017 0.005,-0.026 l 0,-13.579 c 2.626,1.646 2.691,6.202 6.239,7.765 0.474,0.217 1.324,0.368 2.189,0.486 0.104,-0.005 0.2,-0.015 0.305,-0.015 0.06,0 0.112,0.006 0.169,0.008 0.088,-0.017 0.184,-0.025 0.273,-0.039 0.117,-0.067 0.239,-0.129 0.363,-0.187 z"
       id="path5"
       inkscape:connector-curvature="0"
       style="fill:#FFFFFF;fill-opacity:1" /></g></svg>
