<?xml version="1.0" encoding="UTF-8" standalone="no"?>
<svg
   xmlns:dc="http://purl.org/dc/elements/1.1/"
   xmlns:cc="http://creativecommons.org/ns#"
   xmlns:rdf="http://www.w3.org/1999/02/22-rdf-syntax-ns#"
   xmlns:svg="http://www.w3.org/2000/svg"
   xmlns="http://www.w3.org/2000/svg"
   xmlns:sodipodi="http://sodipodi.sourceforge.net/DTD/sodipodi-0.dtd"
   xmlns:inkscape="http://www.inkscape.org/namespaces/inkscape"
   enable-background="new 0 0 32 32"
   height="18"
   id="Layer_1"
   version="1.0"
   viewBox="0 0 19 14.7"
   width="19"
   xml:space="preserve"
   inkscape:version="0.91 r13725"
   sodipodi:docname="youtube_sidebar.svg"><metadata
     id="metadata25"><rdf:RDF><cc:Work
         rdf:about=""><dc:format>image/svg+xml</dc:format><dc:type
           rdf:resource="http://purl.org/dc/dcmitype/StillImage" /><dc:title /></cc:Work></rdf:RDF></metadata><defs
     id="defs23" /><sodipodi:namedview
     pagecolor="#ffffff"
     bordercolor="#666666"
     borderopacity="1"
     objecttolerance="10"
     gridtolerance="10"
     guidetolerance="10"
     inkscape:pageopacity="0"
     inkscape:pageshadow="2"
     inkscape:window-width="1366"
     inkscape:window-height="707"
     id="namedview21"
     showgrid="false"
     inkscape:zoom="5.9"
     inkscape:cx="-6.9491525"
     inkscape:cy="19.661017"
     inkscape:window-x="0"
     inkscape:window-y="0"
     inkscape:window-maximized="1"
     inkscape:current-layer="Layer_1" /><g
     id="g3"
     transform="matrix(0.52860666,0,0,0.52860666,1.118644,1.2668101)"
     style="stroke:none;stroke-opacity:1"><path
       style="fill:#FFF;stroke:none;stroke-opacity:1"
       d="M 9.5703125 3.3808594 C 9.5703125 3.3808594 6.0203403 3.3810266 3.6542969 3.5644531 C 3.3239177 3.6051558 2.6028273 3.6102772 1.9589844 4.328125 C 1.4525792 4.8757615 1.2871094 6.1191406 1.2871094 6.1191406 C 1.2871094 6.1191406 1.1191406 7.5776264 1.1191406 9.0371094 L 1.1191406 10.40625 C 1.1191406 11.86679 1.2871094 13.326172 1.2871094 13.326172 C 1.2871094 13.326172 1.4520506 14.568655 1.9589844 15.115234 C 2.6028273 15.833082 3.4478508 15.811657 3.8242188 15.886719 C 5.1769232 16.025214 9.5742188 16.068359 9.5742188 16.068359 C 9.5742188 16.068359 13.127569 16.062171 15.494141 15.880859 C 15.82452 15.838571 16.544186 15.833082 17.1875 15.115234 C 17.693905 14.568655 17.859375 13.326172 17.859375 13.326172 C 17.859375 13.326172 18.029297 11.866262 18.029297 10.40625 L 18.029297 9.0390625 C 18.029297 7.5790509 17.859375 6.1191406 17.859375 6.1191406 C 17.859375 6.1191406 17.694434 4.8757615 17.1875 4.328125 C 16.544186 3.6102772 15.82452 3.6051558 15.494141 3.5644531 C 13.127569 3.3810266 9.578125 3.3808594 9.578125 3.3808594 L 9.5703125 3.3808594 z M 7.4628906 6.5527344 L 12.748047 9.7246094 L 7.4628906 12.896484 L 7.4628906 6.5527344 z "
       transform="matrix(1.8917658,0,0,1.8917658,-2.1162125,-2.396508)"
       id="path5" /></g><g
     id="g9"
     transform="translate(0,-20)" /><g
     id="g11"
     transform="translate(0,-20)" /><g
     id="g13"
     transform="translate(0,-20)" /><g
     id="g15"
     transform="translate(0,-20)" /><g
     id="g17"
     transform="translate(0,-20)" /><g
     id="g19"
     transform="translate(0,-20)" /></svg>
